<svg xmlns="http://www.w3.org/2000/svg" viewBox="0 0 24.1 19.74"><defs><style>.cls-1{fill:none;stroke:#59595c;stroke-miterlimit:10;}</style></defs><title>Asset 3</title><g id="Layer_2" data-name="Layer 2"><g id="Layer_1-2" data-name="Layer 1"><path class="cls-1" d="M4.79,19.17a.85.85,0,0,0,.33.07.86.86,0,0,0,.6-.25l4.6-4.53H19.6a4,4,0,0,0,4-4h0v-6a4,4,0,0,0-4-4H4.5a4,4,0,0,0-4,4v6a4,4,0,0,0,3.76,4v3.92a.86.86,0,0,0,.53.79M23.6,10.46"/><line class="cls-1" x1="5.12" y1="5.61" x2="19.37" y2="5.61"/><line class="cls-1" x1="5.12" y1="9.35" x2="14.27" y2="9.35"/></g></g></svg>