<svg xmlns="http://www.w3.org/2000/svg" viewBox="0 0 22.72 23.88"><defs><style>.cls-1{fill:none;stroke:#59595c;stroke-miterlimit:10;}</style></defs><title>Asset 4</title><g id="Layer_2" data-name="Layer 2"><g id="Layer_1-2" data-name="Layer 1"><path class="cls-1" d="M7.92,12.45l5.81-5.81a.23.23,0,0,0,.07-.18c-.07-1.08-.11-4.06.51-4.8C14.68,1.23,16,.81,18,.51h.22a1.09,1.09,0,0,1-.16.17c-1.35,1.2-2,2.11-2,2.71a3.53,3.53,0,0,0,1.39,2,3.53,3.53,0,0,0,2.23,1c.6-.05,1.38-.86,2.33-2.39a1.1,1.1,0,0,1,.14-.19,1,1,0,0,1,0,.22c.05,2-.13,3.39-.5,3.83s-2.6,1-4.4,1.25a.23.23,0,0,0-.13.06L12.44,14"/><path class="cls-1" d="M12.52,13.87,9,17.39a.23.23,0,0,0-.07.17c.08,1.76,0,4-.52,4.65-.37.44-1.71.86-3.69,1.16H4.51a1.08,1.08,0,0,1,.16-.17C6,22,6.68,21.1,6.62,20.5c-.11-1.21-2.38-3.14-3.62-3-.6.05-1.38.86-2.33,2.39A1.07,1.07,0,0,1,.53,20a1,1,0,0,1,0-.22c-.05-2,.13-3.39.5-3.83.52-.62,2.79-1.07,4.58-1.27a.23.23,0,0,0,.14-.07L8,12.33"/></g></g></svg>