<svg xmlns="http://www.w3.org/2000/svg" viewBox="0 0 25.89 24.87"><defs><style>.cls-1{fill:none;stroke:#59595c;stroke-miterlimit:10;}</style></defs><title>logout</title><g id="Layer_2" data-name="Layer 2"><g id="Layer_1-2" data-name="Layer 1"><path class="cls-1" d="M11.15,19.12,21.9,12.91a.55.55,0,0,0,0-.95L11.15,5.75a.54.54,0,0,0-.82.47V9.12H1a.55.55,0,0,0-.55.55v5.55a.55.55,0,0,0,.55.54h9.28v2.89a.54.54,0,0,0,.54.55.54.54,0,0,0,.27-.07Zm0,0"/><path class="cls-1" d="M16.23.5h6.32a2.85,2.85,0,0,1,2.84,2.84v18.2a2.85,2.85,0,0,1-2.84,2.84H16.23"/></g></g></svg>