<svg xmlns="http://www.w3.org/2000/svg" viewBox="0 0 13.28 23.04"><defs><style>.cls-1{fill:none;stroke:#59595c;stroke-miterlimit:10;}</style></defs><title>Asset 1</title><g id="Layer_2" data-name="Layer 2"><g id="Layer_1-2" data-name="Layer 1"><path class="cls-1" d="M9.52,15.59a10.3,10.3,0,0,1,.59-3.73c1.13-2.57,2.86-3.08,2.67-6.2C12.51,1.42,9.08.5,6.64.5S.77,1.42.51,5.66C.32,8.78,2,9.29,3.18,11.86a10.29,10.29,0,0,1,.59,3.73Z"/><path class="cls-1" d="M2.71,5.8c.05-.85.19-3.1,3.93-3.1a5.7,5.7,0,0,1,2.19.37"/><line class="cls-1" x1="3.77" y1="17.4" x2="9.52" y2="17.4"/><line class="cls-1" x1="3.77" y1="19.12" x2="9.52" y2="19.12"/><line class="cls-1" x1="3.77" y1="20.89" x2="9.52" y2="20.89"/><path class="cls-1" d="M8.28,20.88a1.64,1.64,0,1,1-3.27,0"/></g></g></svg>