<svg xmlns="http://www.w3.org/2000/svg" viewBox="0 0 23.64 25.31"><defs><style>.cls-1{fill:none;stroke:#59595c;stroke-miterlimit:10;}</style></defs><title>Asset 2</title><g id="Layer_2" data-name="Layer 2"><g id="Layer_1-2" data-name="Layer 1"><path class="cls-1" d="M2.49,24.8"/><path class="cls-1" d="M11.82,14.59h0c-3.31,0-6-3.22-6-7.19S8.5.5,11.82.5s6,2.94,6,6.91-2.68,7.19-6,7.19Z"/><path class="cls-1" d="M11.82,24.8H2.49a2.31,2.31,0,0,1-1.83-.69c-.31-.41-.09-1.26.11-1.73l.51-1.16a23.93,23.93,0,0,1,3-4.95C5.39,15,6.89,15.91,8,16.6a10.71,10.71,0,0,0,1.24.7,6.79,6.79,0,0,0,5.1,0,10.71,10.71,0,0,0,1.24-.7c1.14-.69,2.64-1.6,3.76-.33a23.92,23.92,0,0,1,3,4.95l.51,1.16c.2.47.41,1.32.11,1.73a2.31,2.31,0,0,1-1.83.69H11.82Z"/><path class="cls-1" d="M21.15,24.8"/></g></g></svg>