<svg xmlns="http://www.w3.org/2000/svg" viewBox="0 0 62.31 54.82"><defs><style>.cls-1{fill:#666;}</style></defs><title>Asset 2</title><g id="Layer_2" data-name="Layer 2"><g id="Layer_1-2" data-name="Layer 1"><path class="cls-1" d="M31.16,41.45a10.69,10.69,0,0,1-5.53-1.58c-4-2.42-6.77-7.36-6.77-13.07,0-8.07,5.52-14.65,12.3-14.65s12.3,6.57,12.3,14.65c0,5.8-2.85,10.8-7,13.18a10.65,10.65,0,0,1-5.34,1.47M31.16,0C14,0,0,14.77,0,33A34,34,0,0,0,7.06,53.9c.68-5.77,6.12-10.65,13.76-13a14.69,14.69,0,0,0,10.33,4.42A14.66,14.66,0,0,0,41.3,41.14c7.7,2.51,13,7.68,13.21,13.68A34,34,0,0,0,62.31,33c0-18.22-13.95-33-31.16-33"/></g></g></svg>